<svg width="108" height="49" viewBox="0 0 108 49" fill="none" xmlns="http://www.w3.org/2000/svg">
<path d="M66.168 41.832C56.6107 32.2746 56.6107 16.7254 66.168 7.16801C75.7254 -2.38934 91.2746 -2.38934 100.832 7.16801C110.389 16.7254 110.389 32.2746 100.832 41.832C91.2746 51.3893 75.7254 51.3893 66.168 41.832ZM99.6768 8.32317C90.7563 -0.597334 76.2437 -0.597334 67.3255 8.32317C58.405 17.2437 58.405 31.7563 67.3255 40.6745C76.246 49.595 90.7587 49.595 99.6768 40.6745C108.597 31.754 108.597 17.2413 99.6768 8.32317Z" fill="white"/>
<path d="M99.2696 19.455C99.1829 19.3683 99.1126 19.2582 99.0728 19.1364C98.2177 16.6061 96.8213 14.3639 94.9235 12.4662C93.0281 10.5708 90.7836 9.17441 88.2533 8.31691C87.9183 8.20211 87.6934 7.89051 87.6934 7.53673V1.53189C87.6934 1.27886 87.8105 1.03988 88.0096 0.882903C88.2111 0.725929 88.4712 0.672047 88.7149 0.732962C93.0398 1.81538 96.9993 4.05987 100.162 7.22512C103.325 10.3904 105.57 14.3475 106.652 18.6725C106.713 18.9185 106.657 19.1786 106.502 19.3801C106.345 19.5815 106.106 19.6964 105.853 19.6964H99.8483C99.6234 19.6964 99.4172 19.605 99.2649 19.4527L99.2696 19.455ZM96.0879 11.3018C98.0232 13.237 99.4828 15.5049 100.434 18.0493H104.778C103.686 14.4131 101.702 11.0909 99.0002 8.38954C96.2988 5.68818 92.9766 3.70375 89.3428 2.61431V6.95803C91.8872 7.90691 94.1551 9.36653 96.0903 11.3041L96.0879 11.3018Z" fill="white"/>
<path d="M66.2248 41.1671C63.0619 38.0042 60.815 34.0447 59.7326 29.7198C59.6717 29.4738 59.7279 29.2137 59.8825 29.0145C60.0395 28.8131 60.2785 28.6982 60.5315 28.6982H66.5364C66.8901 28.6982 67.2041 28.9232 67.3165 29.2582C68.1717 31.7885 69.5681 34.0307 71.4658 35.9284C73.3612 37.8238 75.6057 39.2202 78.136 40.0777C78.4711 40.1901 78.696 40.5041 78.696 40.8579V46.8627C78.696 47.1157 78.5788 47.3547 78.3797 47.5117C78.1782 47.6687 77.9181 47.7225 77.6721 47.6616C73.3471 46.5792 69.39 44.3347 66.2248 41.1718V41.1671ZM61.6116 30.343C62.7034 33.9791 64.6878 37.3014 67.3892 40.0027C70.0905 42.7041 73.4128 44.6885 77.0489 45.7803V41.4366C74.5046 40.4877 72.2366 39.0281 70.3014 37.0928C68.3662 35.1576 66.9065 32.8897 65.9553 30.3453H61.6116V30.343Z" fill="white"/>
<path d="M87.9383 47.4412C87.7837 47.2866 87.697 47.078 87.697 46.8578V40.853C87.697 40.4992 87.9219 40.1853 88.257 40.0728C90.7873 39.2176 93.0294 37.8213 94.9272 35.9235C96.8249 34.0258 98.2189 31.7836 99.0764 29.2533C99.1889 28.9183 99.5029 28.6934 99.8567 28.6934H105.861C106.115 28.6934 106.354 28.8105 106.51 29.0096C106.667 29.2088 106.721 29.4712 106.66 29.7149C105.576 34.0398 103.331 37.997 100.168 41.1622C97.0053 44.3275 93.0458 46.572 88.7209 47.6544C88.4749 47.7153 88.2148 47.6591 88.0157 47.5045C87.9899 47.481 87.9641 47.4599 87.9407 47.4365L87.9383 47.4412ZM89.3441 41.434V45.7777C92.9803 44.686 96.3025 42.7015 99.0038 40.0002C101.705 37.2988 103.687 33.9766 104.781 30.3404H100.438C99.4888 32.8848 98.0292 35.1504 96.0916 37.0879C94.1564 39.0232 91.8885 40.4851 89.3441 41.434Z" fill="white"/>
<path d="M60.9485 19.4552C60.9251 19.4317 60.9017 19.406 60.8829 19.3802C60.7259 19.181 60.672 18.9186 60.733 18.6726C61.8154 14.3476 64.0599 10.3881 67.2251 7.22524C70.3904 4.06233 74.3475 1.8155 78.6725 0.733082C78.9185 0.672167 79.1786 0.728393 79.3777 0.883024C79.5769 1.04 79.694 1.27898 79.694 1.53201V7.53685C79.694 7.89063 79.4691 8.20457 79.1341 8.31703C76.6037 9.17219 74.3616 10.5686 72.4638 12.4663C70.5684 14.3617 69.1721 16.6062 68.3146 19.1365C68.2021 19.4716 67.8882 19.6965 67.5344 19.6965H61.5296C61.3093 19.6965 61.0984 19.6098 60.9462 19.4575L60.9485 19.4552ZM78.047 2.61443C74.4108 3.70622 71.0886 5.69065 68.3872 8.39201C65.6858 11.0934 63.7038 14.4156 62.6096 18.0518H66.9533C67.9022 15.5074 69.3618 13.2418 71.2994 11.3042C73.2346 9.36899 75.5026 7.90937 78.047 6.95816V2.61443Z" fill="white"/>
<path d="M90.5272 31.4576L76.92 31.5478C76.3468 31.5516 75.8852 32.0194 75.889 32.5926L75.8922 33.0775C75.896 33.6507 76.3638 34.1123 76.937 34.1085L90.5442 34.0183C91.1174 34.0145 91.579 33.5467 91.5752 32.9735L91.572 32.4886C91.5682 31.9153 91.1004 31.4538 90.5272 31.4576Z" fill="white"/>
<path d="M78.7738 23.244C78.6262 23.244 78.4762 23.2112 78.3403 23.1456L77.279 22.6325C76.8174 22.4076 76.6066 21.8617 76.7987 21.386L77.286 20.1724C77.436 19.8023 77.7897 19.5609 78.188 19.5586C78.3591 19.5586 78.5278 19.6008 78.6777 19.6875L79.9429 20.4091C80.1795 20.5426 80.3505 20.7746 80.4114 21.0416C80.4724 21.3087 80.4185 21.5899 80.2638 21.8148L79.5704 22.8199C79.39 23.0823 79.0901 23.2416 78.7714 23.2416L78.7738 23.244Z" fill="white"/>
<path d="M88.5683 23.1783C88.2497 23.1783 87.9475 23.026 87.7647 22.7659L87.0782 21.7983C86.9189 21.5757 86.8627 21.2946 86.9189 21.0275C86.9752 20.7604 87.1439 20.5261 87.3805 20.3879L88.6855 19.6217C88.8331 19.5351 89.0018 19.4882 89.1728 19.4859C89.5711 19.4835 89.9296 19.7201 90.0842 20.088L90.5762 21.2665C90.773 21.7397 90.5692 22.2903 90.1123 22.5199L89.0018 23.0752C88.8682 23.1408 88.7183 23.1783 88.5707 23.1783H88.5683Z" fill="white"/>
<path d="M77.7046 30.638C77.1072 30.6427 76.5706 30.2679 76.3668 29.7056L74.0966 23.4571C73.9513 23.5274 73.7967 23.5812 73.6397 23.6211C73.4546 23.6679 73.2672 23.6914 73.0774 23.6914C72.9673 23.6914 72.8595 23.6867 72.7541 23.6726C71.5709 23.5227 70.6736 22.5082 70.6666 21.3133C70.6572 19.9919 71.7255 18.9095 73.0469 18.9001C74.3683 18.8908 75.4507 19.9591 75.4578 21.2805C75.4578 21.5851 75.4062 21.878 75.2984 22.1521C75.2399 22.302 75.1673 22.4449 75.0829 22.5808L79.4009 24.6707L82.7044 19.8842C82.5661 19.8256 82.4326 19.753 82.306 19.6663C82.0671 19.5046 81.8586 19.3031 81.6899 19.0665C81.404 18.6635 81.2494 18.1879 81.2471 17.6959C81.2377 16.3745 82.3061 15.2921 83.6274 15.2827C83.686 15.2827 83.7469 15.2827 83.8055 15.2874C84.9887 15.3671 85.9446 16.3159 86.0313 17.4991C86.0711 18.059 85.9235 18.5956 85.6049 19.0524C85.4362 19.2914 85.23 19.4952 84.9933 19.6569C84.8692 19.7436 84.7356 19.8162 84.5974 19.8748L87.9595 24.6121L92.2071 22.4871C92.1275 22.3348 92.0642 22.1755 92.0174 22.0092C91.9611 21.8077 91.9307 21.5968 91.9307 21.3836C91.9307 21.2875 91.9353 21.1915 91.9447 21.0978C92.0806 19.8935 93.0974 18.9798 94.3087 18.9728C95.6301 18.9634 96.7125 20.0318 96.7195 21.3532C96.7289 22.6136 95.7496 23.6726 94.4914 23.7593L94.3415 23.764C94.0978 23.764 93.8589 23.7312 93.6269 23.6609C93.477 23.614 93.3317 23.5555 93.1958 23.4805L91.0638 29.6072C90.8693 30.1718 90.3351 30.5514 89.7377 30.556L77.7046 30.6357V30.638Z" fill="white"/>
<path d="M24.4958 0.0293886C24.9846 0.0293886 25.3756 0.425455 25.3756 0.908988C25.3756 1.39252 24.9795 1.78862 24.4958 1.78862C11.9624 1.78862 1.76477 11.984 1.76477 24.5147C1.76477 37.0454 11.9624 47.2408 24.4958 47.2408C24.9846 47.2408 25.3756 47.6369 25.3756 48.1204C25.3756 48.6039 24.9795 49 24.4958 49C10.9899 49 0 38.0125 0 24.5095C0 11.0066 10.9899 0.0190906 24.4958 0.0190906V0.0293886Z" fill="white"/>
<path d="M24.1203 4.66781e-05L83.2375 4.66781e-05C83.7263 4.66781e-05 84.1173 0.396113 84.1173 0.879646C84.1173 1.36318 83.7211 1.75928 83.2375 1.75928L24.1203 1.75928C23.6315 1.75928 23.2405 1.36318 23.2405 0.879646C23.2405 0.396113 23.6366 4.66781e-05 24.1203 4.66781e-05Z" fill="white"/>
<path d="M23.9916 47.2139L83.1088 47.2139C83.5976 47.2139 83.9886 47.61 83.9886 48.0935C83.9886 48.5771 83.5925 48.9731 83.1088 48.9731L23.9916 48.9731C23.5028 48.9731 23.1118 48.5771 23.1118 48.0935C23.1118 47.61 23.508 47.2139 23.9916 47.2139Z" fill="white"/>
</svg>
