<svg width="100" height="222" viewBox="0 0 100 222" fill="none" xmlns="http://www.w3.org/2000/svg">
<g clip-path="url(#clip0_22_8075)">
<path d="M0.484375 172.357V52.7616C0.484375 51.7728 1.28586 50.9817 2.26427 50.9817C3.24269 50.9817 4.04417 51.7832 4.04417 52.7616V172.357C4.04417 173.346 3.24269 174.137 2.26427 174.137C1.28586 174.137 0.484375 173.335 0.484375 172.357Z" fill="white"/>
<path d="M96.0352 172.628V53.0323C96.0352 52.0435 96.8366 51.2524 97.815 51.2524C98.7934 51.2524 99.5949 52.0539 99.5949 53.0323V172.628C99.5949 173.616 98.7934 174.407 97.815 174.407C96.8366 174.407 96.0352 173.606 96.0352 172.628Z" fill="white"/>
<g clip-path="url(#clip1_22_8075)">
<path d="M14.8282 202.452C-4.66149 182.962 -4.66149 151.253 14.8282 131.764C34.3179 112.274 66.0266 112.274 85.5164 131.764C105.006 151.253 105.006 182.962 85.5164 202.452C66.0266 221.941 34.3179 221.941 14.8282 202.452ZM83.1607 134.119C64.9697 115.928 35.3749 115.928 17.1886 134.119C-1.00244 152.31 -1.00244 181.905 17.1886 200.091C35.3796 218.282 64.9744 218.282 83.1607 200.091C101.352 181.9 101.352 152.306 83.1607 134.119Z" fill="white"/>
<path d="M83.7003 156.505C83.5249 156.33 83.3828 156.107 83.3022 155.86C81.5722 150.741 78.7472 146.206 74.908 142.366C71.0736 138.532 66.533 135.707 61.4141 133.972C60.7364 133.74 60.2812 133.11 60.2812 132.394V120.246C60.2812 119.734 60.5183 119.251 60.9212 118.933C61.3288 118.616 61.8549 118.507 62.3479 118.63C71.0974 120.82 79.1074 125.36 85.506 131.764C91.9046 138.167 96.4454 146.172 98.6352 154.922C98.7584 155.419 98.6447 155.946 98.3318 156.353C98.0143 156.761 97.5307 156.993 97.0188 156.993H84.871C84.416 156.993 83.9988 156.808 83.6907 156.5L83.7003 156.505ZM77.2637 140.011C81.1787 143.926 84.1316 148.514 86.0559 153.661H94.8433C92.6346 146.305 88.62 139.584 83.1551 134.119C77.6902 128.654 70.9693 124.64 63.618 122.436V131.223C68.7654 133.143 73.3535 136.096 77.2685 140.015L77.2637 140.011Z" fill="white"/>
<path d="M14.8268 202.452C8.42819 196.053 3.88279 188.043 1.69304 179.293C1.5698 178.796 1.68356 178.27 1.99639 177.867C2.31395 177.459 2.79738 177.227 3.30927 177.227H15.4572C16.1729 177.227 16.808 177.682 17.0355 178.36C18.7655 183.479 21.5904 188.014 25.4295 191.854C29.264 195.688 33.8047 198.513 38.9236 200.248C39.6014 200.475 40.0563 201.11 40.0563 201.826V213.974C40.0563 214.486 39.8193 214.969 39.4165 215.287C39.0088 215.604 38.4827 215.713 37.9851 215.59C29.2355 213.4 21.2302 208.86 14.8268 202.461V202.452ZM5.4943 180.554C7.70301 187.91 11.7176 194.631 17.1825 200.096C22.6474 205.561 29.3683 209.575 36.7243 211.784V202.997C31.577 201.077 26.9889 198.124 23.0739 194.209C19.1589 190.294 16.2061 185.706 14.2817 180.559H5.4943V180.554Z" fill="white"/>
<path d="M60.7773 215.145C60.4644 214.832 60.2891 214.41 60.2891 213.965V201.817C60.2891 201.101 60.7441 200.466 61.4219 200.238C66.5408 198.508 71.0767 195.684 74.9158 191.844C78.755 188.005 81.5751 183.469 83.3098 178.35C83.5374 177.673 84.1725 177.218 84.8882 177.218H97.0361C97.548 177.218 98.0315 177.455 98.349 177.857C98.6666 178.26 98.7756 178.791 98.6524 179.284C96.4579 188.034 91.9172 196.039 85.5186 202.442C79.12 208.846 71.1098 213.386 62.3603 215.576C61.8626 215.699 61.3365 215.586 60.9337 215.273C60.8815 215.225 60.8294 215.183 60.782 215.135L60.7773 215.145ZM63.6211 202.992V211.78C70.9771 209.571 77.6981 205.556 83.1629 200.091C88.6278 194.627 92.6377 187.906 94.8511 180.55H86.0637C84.1441 185.697 81.1912 190.28 77.2715 194.2C73.3564 198.115 68.7684 201.073 63.6211 202.992Z" fill="white"/>
<path d="M2.13007 156.505C2.08267 156.458 2.03529 156.405 1.99737 156.353C1.67981 155.95 1.57079 155.42 1.69402 154.922C3.88377 146.172 8.42443 138.162 14.8278 131.764C21.2311 125.365 29.2365 120.82 37.986 118.63C38.4837 118.507 39.0098 118.62 39.4127 118.933C39.8155 119.251 40.0526 119.734 40.0526 120.246V132.394C40.0526 133.11 39.5976 133.745 38.9198 133.972C33.8009 135.702 29.2649 138.527 25.4257 142.366C21.5913 146.201 18.7665 150.741 17.0317 155.86C16.8042 156.538 16.1691 156.993 15.4534 156.993H3.30554C2.86 156.993 2.4334 156.818 2.12532 156.51L2.13007 156.505ZM36.7205 122.436C29.3645 124.645 22.6435 128.659 17.1787 134.124C11.7138 139.589 7.70399 146.31 5.49054 153.666H14.2779C16.1975 148.519 19.1504 143.935 23.0701 140.015C26.9851 136.1 31.5732 133.148 36.7205 131.223V122.436Z" fill="white"/>
<path d="M77.2674 140.011C62.3278 125.071 38.013 125.066 23.0734 140.011C8.12909 154.955 8.13383 179.265 23.0734 194.205C38.013 209.144 62.323 209.149 77.2674 194.205C92.2117 179.26 92.207 154.95 77.2674 140.011Z" fill="white" fill-opacity="0.02"/>
<path d="M63.9943 180.785L36.4666 180.968C35.307 180.976 34.3732 181.922 34.3809 183.081L34.3874 184.062C34.3951 185.222 35.3414 186.156 36.501 186.148L64.0286 185.966C65.1882 185.958 66.1221 185.012 66.1144 183.852L66.1079 182.871C66.1002 181.711 65.1539 180.778 63.9943 180.785Z" fill="white"/>
<path d="M40.2172 164.169C39.9186 164.169 39.6152 164.103 39.3403 163.97L37.1932 162.932C36.2595 162.477 35.8329 161.372 36.2216 160.41L37.2075 157.955C37.5108 157.206 38.2265 156.718 39.0323 156.713C39.3783 156.713 39.7195 156.799 40.0228 156.974L42.5823 158.434C43.061 158.704 43.407 159.173 43.5302 159.714C43.6535 160.254 43.5445 160.823 43.2316 161.278L41.8287 163.311C41.4637 163.842 40.857 164.164 40.2124 164.164L40.2172 164.169Z" fill="white"/>
<path d="M60.032 164.036C59.3874 164.036 58.776 163.728 58.4063 163.202L57.0176 161.245C56.6953 160.794 56.5816 160.226 56.6953 159.685C56.8091 159.145 57.1503 158.671 57.629 158.391L60.269 156.842C60.5676 156.666 60.9089 156.571 61.2549 156.567C62.0607 156.562 62.7859 157.041 63.0987 157.785L64.094 160.169C64.4921 161.126 64.0798 162.24 63.1555 162.705L60.9089 163.828C60.6388 163.961 60.3354 164.036 60.0368 164.036H60.032Z" fill="white"/>
<path d="M38.0546 179.128C36.846 179.137 35.7606 178.379 35.3482 177.241L30.7555 164.6C30.4616 164.742 30.1488 164.852 29.8312 164.932C29.4568 165.027 29.0776 165.074 28.6937 165.074C28.4709 165.074 28.2529 165.065 28.0396 165.036C25.646 164.733 23.8307 162.681 23.8165 160.263C23.7976 157.59 25.9588 155.401 28.632 155.382C31.3052 155.363 33.495 157.524 33.5092 160.197C33.5092 160.813 33.4049 161.406 33.1869 161.96C33.0684 162.264 32.9215 162.553 32.7509 162.828L41.4862 167.055L48.1692 157.372C47.8896 157.254 47.6194 157.107 47.3634 156.931C46.88 156.604 46.4581 156.197 46.1169 155.718C45.5386 154.903 45.2258 153.941 45.2211 152.945C45.2021 150.272 47.3634 148.082 50.0366 148.063C50.1551 148.063 50.2784 148.063 50.3969 148.073C52.7904 148.234 54.7242 150.154 54.8996 152.547C54.9802 153.68 54.6816 154.765 54.037 155.69C53.6957 156.173 53.2786 156.585 52.7999 156.912C52.5487 157.088 52.2785 157.235 51.9989 157.353L58.8004 166.937L67.3935 162.638C67.2323 162.33 67.1044 162.008 67.0096 161.671C66.8958 161.264 66.8342 160.837 66.8342 160.406C66.8342 160.211 66.8437 160.017 66.8626 159.827C67.1375 157.391 69.1946 155.543 71.645 155.528C74.3182 155.51 76.508 157.671 76.5222 160.344C76.5411 162.894 74.5599 165.036 72.0147 165.212L71.7114 165.221C71.2184 165.221 70.735 165.155 70.2658 165.013C69.9624 164.918 69.6685 164.799 69.3936 164.648L65.0805 177.042C64.6871 178.184 63.6064 178.952 62.3978 178.962L38.0546 179.123V179.128Z" fill="white"/>
</g>
<path d="M1.02054 53.2317C1.02054 54.2142 1.81305 55 2.78049 55C3.74793 55 4.54044 54.2033 4.54044 53.2317C4.54044 28.0416 24.9391 7.54663 50.0103 7.54663C75.0816 7.54663 95.4802 28.0416 95.4802 53.2317C95.4802 54.2142 96.2727 55 97.2402 55C98.2076 55 99 54.2033 99 53.2317C99 26.0875 77.0164 4 50 4C22.9836 4 1 26.0875 1 53.2317H1.02054Z" fill="white"/>
</g>
<defs>
<clipPath id="clip0_22_8075">
<rect width="100" height="222" fill="white"/>
</clipPath>
<clipPath id="clip1_22_8075">
<rect width="101" height="101" fill="white" transform="translate(0 117)"/>
</clipPath>
</defs>
</svg>
